<?xml version="1.0" encoding="utf-8"?>
<!-- Generator: Adobe Illustrator 23.0.1, SVG Export Plug-In . SVG Version: 6.00 Build 0)  -->
<svg version="1.1" id="Calque_1" xmlns="http://www.w3.org/2000/svg" xmlns:xlink="http://www.w3.org/1999/xlink" x="0px" y="0px"
	 viewBox="0 0 619.4 620.1" style="enable-background:new 0 0 619.4 620.1;" xml:space="preserve">
<style type="text/css">
	.st0{fill:#51CBCE;stroke:#FFFFFF;stroke-miterlimit:10;}
	.st1{fill:#EAEAEA;}
	.st2{opacity:0.39;fill:url(#SVGID_1_);enable-background:new    ;}
	.st3{opacity:0.49;fill:url(#SVGID_2_);enable-background:new    ;}
</style>
<circle class="st0" cx="309.7" cy="310.5" r="309.7"/>
<title>Plan de travail 2</title>
<path class="st1" d="M256.9,81.8c16.9-6.4,34.8-9.6,52.9-9.6c81.5,0,147.5,65.1,147.5,145.5c0,24.4-6.2,48.4-18,69.8l-0.1,0.1
	l-29.8,55.7c0,0-10.3,17-9.2,45.3c0,0,3.2,47.1-42.8,58.7c-38.1,13.4-88.4,14.9-107.6,15h-0.2h-2.6l0,0c-8.5-0.4-15-7.7-14.6-16.2
	c0.4-8.2,7.2-14.7,15.5-14.6c0,0,97.3-8.4,107.7-17.2c8-3.6,13.2-11.4,13.6-20.2c0,0-2.6-27.8,4.2-45c2.7-9,6.5-17.6,11.4-25.6
	c7.5-12.3,14.3-25,20.4-38c13.8-19.9,21.1-43.6,21.1-67.8c0-65.2-52.2-118.1-116.5-118.1s-116.5,52.9-116.5,118.1
	c0,12.2,1.8,24.4,5.5,36c2.4,7.7,5.6,15.1,9.6,22.1c1.8,4.1,3.9,8,6.3,11.7c12.5,18.7,25,38.7,32,61.7c0.9,3,1.7,6,2.4,9.1
	c0.1,0.4,0.2,0.8,0.3,1.1c1,4.5,1.6,9,1.8,13.6c0.4,6.3,0.2,12.5,0.1,18.5l0,0v0.1c0,8.6-6.9,15.5-15.5,15.5s-15.5-6.9-15.5-15.5
	c0-0.3,0-0.6,0-0.9l0,0c0.1-5.2,0.3-10.2,0-14.9c-0.1-3.3-0.5-6.5-1.2-9.7c-0.2-1.1-0.5-2.2-0.8-3.3c-5.3-20.8-17.4-40.1-29.4-58.1
	c-5.6-8.4-9.6-17.8-13.5-26.9c-0.1-0.3-0.3-0.6-0.4-0.9c-1-2.3-1.9-4.5-2.8-6.5c-6.6-16.8-10-34.7-10-52.7
	c0-62,39.3-114.9,94.6-135.9L256.9,81.8z"/>
<path class="st1" d="M386.3,525.6c4.3,7.4,1.8,16.8-5.6,21.1c-6.7,3.9-15.3,2.2-20-3.9l0,0l-6.3-7.5l-0.1-0.1l-0.1-0.1l0,0l-0.6-0.4
	c-1.4-0.9-2.8-1.6-4.3-2.3c-1.7-0.8-3.4-1.5-5.1-2.1s-3.4-1.2-5.1-1.7l-0.6-0.2l0,0c-2-0.6-4-1.2-6-1.7c-2-0.5-4.1-1-6.1-1.5
	s-4-0.9-6-1.3s-3.8-0.7-5.7-1c-1.7-0.3-3.4-0.6-5.1-0.8c-1.4-0.2-2.9-0.4-4.3-0.7c-2.3-0.3-4.5-0.7-6.8-0.8c-1.5-0.1-3-0.1-4.4-0.1
	c-0.8,0-1.5,0-2.3,0.1h-0.1l-2.2,0.1c-1.4,0.1-2.9,0.1-4.3,0.2c-2.7,0.1-5.4,0.2-8.1,0.3c-2.3,0.1-4.6,0.1-6.9,0.2
	c-1.9,0-3.8,0.1-5.7,0.1c-1.5,0-3.1,0-4.7,0c-1.2,0-2.5,0-3.7,0l-2.9-0.1c-0.7,0-1.4-0.1-2.1-0.1c-0.5,0-1-0.1-1.5-0.1l-1-0.1
	l-0.6-0.1l-0.3-0.1H248c-8.9,0.1-16.1-7-16.2-15.8c-0.1-8.9,7-16.1,15.8-16.2h0.5h1.9c3.8-0.1,7.5-0.2,11.1-0.3
	c57.9-2.1,86.8-12.4,86.8-12.4c-33.8-11.3-81-13.5-96.1-13.8l-2-0.2c19.3,0,69.5-1.6,107.6-15c3.2,0.5,30.7,9.5,31.1,29.6
	c0.2,10.9-7,18.2-13.7,22.7c-3.4,2.3-7.1,4.1-11,5.5c8.9,4.2,16.4,10.8,21.7,19.1l0,0C385.7,524.7,386.1,525.1,386.3,525.6z"/>
<linearGradient id="SVGID_1_" gradientUnits="userSpaceOnUse" x1="335.7669" y1="108.9246" x2="309.1752" y2="181.9843" gradientTransform="matrix(1 0 0 -1 0 622.6972)">
	<stop  offset="0" style="stop-color:#EAEAEA"/>
	<stop  offset="0.31" style="stop-color:#E8E8E8"/>
	<stop  offset="0.46" style="stop-color:#E0E0E0"/>
	<stop  offset="0.57" style="stop-color:#D3D3D3"/>
	<stop  offset="0.67" style="stop-color:#C1C1C1"/>
	<stop  offset="0.75" style="stop-color:#AAAAAA"/>
	<stop  offset="0.8" style="stop-color:#989898"/>
	<stop  offset="0.84" style="stop-color:#7F7F7F"/>
	<stop  offset="0.92" style="stop-color:#3E3E3E"/>
	<stop  offset="1" style="stop-color:#000000"/>
</linearGradient>
<path class="st2" d="M388.4,476.9c0.2,10.9-7,18.2-13.7,22.7l-55.6-4.4l-58-6.6c57.9-2.1,86.8-12.4,86.8-12.4
	c-33.8-11.3-81-13.5-96.1-13.8l-2,0c19.3,0,69.5-1.6,107.6-15C360.6,447.8,388.1,456.8,388.4,476.9z"/>
<linearGradient id="SVGID_2_" gradientUnits="userSpaceOnUse" x1="351.7579" y1="65.2004" x2="332.9179" y2="116.9405" gradientTransform="matrix(1 0 0 -1 0 622.6972)">
	<stop  offset="0" style="stop-color:#EAEAEA"/>
	<stop  offset="0.33" style="stop-color:#E8E8E8"/>
	<stop  offset="0.48" style="stop-color:#E0E0E0"/>
	<stop  offset="0.6" style="stop-color:#D3D3D3"/>
	<stop  offset="0.7" style="stop-color:#C1C1C1"/>
	<stop  offset="0.79" style="stop-color:#AAAAAA"/>
	<stop  offset="0.84" style="stop-color:#989898"/>
	<stop  offset="0.9" style="stop-color:#7F7F7F"/>
	<stop  offset="1" style="stop-color:#4D4D4D"/>
</linearGradient>
<path class="st3" d="M387.6,538.3c-2.8,8.1-11.6,12.4-19.6,9.6c-2.9-1-5.4-2.8-7.2-5.2l0,0l-6.3-7.5l-0.1-0.1l-0.1-0.1l0,0l-0.6-0.4
	c-1.4-0.9-2.8-1.6-4.3-2.3c-1.7-0.8-3.4-1.5-5.1-2.1s-3.4-1.2-5.1-1.7l-0.6-0.2l0,0c-2-0.6-4-1.2-6-1.7c-2-0.5-4.1-1-6.1-1.5
	s-4-0.9-6-1.3s-3.8-0.7-5.7-1c-1.7-0.3-3.4-0.6-5.1-0.8c-1.4-0.2-2.9-0.4-4.3-0.7c-2.3-0.3-4.5-0.7-6.8-0.8c-1.5-0.1-3-0.1-4.4-0.1
	c-0.8,0-1.5,0-2.3,0.1c18.3-1.9,51.7-6.3,71.8-15.5c8.9,4.2,16.4,10.8,21.7,19.1l0,0c0.3,0.5,0.6,0.9,0.9,1.4
	C388.5,529.5,389,534.1,387.6,538.3z"/>
<path class="st1" d="M385.2,217.1c0,4.8-0.4,9.5-1.3,14.2c-1.5,7.9-4.3,15.6-8.3,22.6l0,0l0,0v0l-0.1,0.1l-0.1,0.2l-0.4,0.6
	l-0.3,0.5c-0.6,1-1.5,2.4-2.6,4.1l-0.1,0.1c-7.8,12.7-26,43-31.5,57.5l-0.6,1.3l-0.1,0.2c-3,6.9-10.9,10-17.8,7.1s-10-10.9-7.1-17.8
	c0.2-0.5,0.4-0.9,0.7-1.3l0.1-0.1l0.2-0.4V306c0.2-0.4,0.5-0.9,0.9-1.5c1.5-2.6,4.4-7.5,7.9-13.5c9.5-16.5,23.6-41.3,27-49.8
	c2.4-4.1,4.1-8.6,5.2-13.2c6.1-26.1-10.1-52.1-36.2-58.2c-26.1-6.1-52.1,10.1-58.2,36.2c-0.8,3.6-1.3,7.3-1.3,11
	c0,5.7,1,11.3,3,16.7c0.8,1.8,1.2,3.8,1.3,5.7c0,7.4-6,13.5-13.5,13.5c-5.6,0-10.7-3.5-12.6-8.7h-0.1c-15-38.9,4.4-82.6,43.2-97.6
	c38.9-15,82.6,4.4,97.6,43.2C383.6,198.6,385.3,207.8,385.2,217.1L385.2,217.1z"/>
</svg>
